<svg width="64" height="64" viewBox="0 0 64 64" fill="none" xmlns="http://www.w3.org/2000/svg">
  <rect width="64" height="64" rx="18" fill="#050816"/>
  <rect x="6" y="6" width="52" height="52" rx="15" fill="url(#paint0_radial)"/>
  <path d="M20 40.5V23.5H28.5C33 23.5 36 26.1 36 30.1C36 34.1 33 36.7 28.5 36.7H24.2V40.5H20ZM24.2 33H28.1C30.3 33 31.7 31.9 31.7 30.1C31.7 28.3 30.3 27.2 28.1 27.2H24.2V33Z" fill="#67E8F9"/>
  <path d="M38.2 40.5V23.5H42.4V36.7H50.8V40.5H38.2Z" fill="#C084FC"/>
  <path d="M17 47H47" stroke="#F8FAFC" stroke-width="3" stroke-linecap="round"/>
  <defs>
    <radialGradient id="paint0_radial" cx="0" cy="0" r="1" gradientUnits="userSpaceOnUse" gradientTransform="translate(18 11) rotate(45) scale(62)">
      <stop stop-color="#22D3EE" stop-opacity="0.35"/>
      <stop offset="0.55" stop-color="#7C3AED" stop-opacity="0.22"/>
      <stop offset="1" stop-color="#0F172A"/>
    </radialGradient>
  </defs>
</svg>
